<svg xmlns="http://www.w3.org/2000/svg" viewBox="0 0 48 48" width="48" height="48">
  <defs>
    <linearGradient id="shieldGrad" x1="0%" y1="0%" x2="100%" y2="100%">
      <stop offset="0%" style="stop-color:#1D4ED8"/>
      <stop offset="100%" style="stop-color:#1E40AF"/>
    </linearGradient>
    <linearGradient id="leafGrad" x1="0%" y1="0%" x2="100%" y2="100%">
      <stop offset="0%" style="stop-color:#10B981"/>
      <stop offset="100%" style="stop-color:#059669"/>
    </linearGradient>
  </defs>
  
  <!-- Shield Background -->
  <path d="M24 3L6 9v15c0 10 7.8 16.5 18 21 10.2-4.5 18-11 18-21V9L24 3z" 
        fill="url(#shieldGrad)" opacity="0.15"/>
  
  <!-- Shield Border -->
  <path d="M24 5L8 10v14c0 9 7 15 16 19.5 9-4.5 16-10.5 16-19.5V10L24 5z" 
        fill="none" stroke="url(#shieldGrad)" stroke-width="2" stroke-linejoin="round"/>
  
  <!-- Central Leaf -->
  <g transform="translate(24, 26)">
    <path d="M0-12 C6-8 8-2 6 4 C4 8 2 10 0 12 C-2 10 -4 8 -6 4 C-8-2 -6-8 0-12z" 
          fill="url(#leafGrad)"/>
    <path d="M0-10 L0 10" stroke="#fff" stroke-width="1" opacity="0.6"/>
  </g>
  
  <!-- Three Dosha Dots -->
  <circle cx="17" cy="38" r="2" fill="#F59E0B"/>
  <circle cx="24" cy="40" r="2" fill="#EF4444"/>
  <circle cx="31" cy="38" r="2" fill="#3B82F6"/>
</svg>
